<?xml version="1.0" encoding="iso-8859-1"?>
<!-- Generator: Adobe Illustrator 19.0.0, SVG Export Plug-In . SVG Version: 6.00 Build 0)  -->
<svg version="1.1" id="Layer_1" xmlns="http://www.w3.org/2000/svg" xmlns:xlink="http://www.w3.org/1999/xlink" x="0px" y="0px"
	 viewBox="0 0 512 512" style="enable-background:new 0 0 512 512;" xml:space="preserve">
<g>
	<g>
		<path d="M256,0C115.403,0,0,116.226,0,256c0,140.633,116.232,256,256,256c140.609,0,256-116.22,256-256
			C512,115.46,395.788,0,256,0z M360.832,57.071c40.036,21.183,73.914,54.062,95.098,94.098l-83.958,36.87
			c-11.691-19.867-28.143-36.319-48.01-48.01L360.832,57.071z M151.168,56.071l36.87,83.958
			c-19.867,11.691-36.319,28.143-48.01,48.01l-82.958-36.87C78.254,111.132,111.132,77.254,151.168,56.071z M151.168,454.929
			c-40.036-21.183-72.914-54.062-94.098-94.098l82.958-36.87c11.691,19.867,28.143,36.319,48.01,48.01L151.168,454.929z M151,256
			c0-57.891,47.109-105,105-105s105,47.109,105,105s-47.109,105-105,105S151,313.891,151,256z M360.832,454.929l-36.87-82.958
			c19.867-11.691,36.319-28.143,48.01-48.01l83.958,36.87C434.746,400.868,400.868,433.746,360.832,454.929z"/>
	</g>
</g>
<g>
</g>
<g>
</g>
<g>
</g>
<g>
</g>
<g>
</g>
<g>
</g>
<g>
</g>
<g>
</g>
<g>
</g>
<g>
</g>
<g>
</g>
<g>
</g>
<g>
</g>
<g>
</g>
<g>
</g>
</svg>
